<?xml version="1.0" encoding="utf-8"?>
<!-- Generator: Adobe Illustrator 22.0.1, SVG Export Plug-In . SVG Version: 6.00 Build 0)  -->
<svg version="1.1" id="Camada_1" xmlns="http://www.w3.org/2000/svg" xmlns:xlink="http://www.w3.org/1999/xlink" x="0px" y="0px"
	 viewBox="0 0 125.1 71.1" style="enable-background:new 0 0 125.1 71.1;" xml:space="preserve">
<style type="text/css">
	.st0{fill:#FFFFFF;}
</style>
<g>
	<g>
		<path class="st0" d="M62.5,71.1c-2.3,0-4.5-0.9-6.1-2.5L2.5,14.7C0.9,13.1,0,10.9,0,8.6s0.9-4.5,2.5-6.1c3.4-3.4,8.8-3.4,12.2,0
			l47.9,47.9l47.8-47.9c1.6-1.6,3.8-2.5,6.1-2.5c2.3,0,4.5,0.9,6.1,2.5l0,0c0,0,0,0,0,0c0,0,0,0,0,0c1.7,1.7,2.5,3.8,2.5,6.2
			c0,2.3-1,4.4-2.6,6L68.6,68.6C67,70.2,64.8,71.1,62.5,71.1z"/>
	</g>
</g>
</svg>
