<svg id="Layer_1" data-name="Layer 1" xmlns="http://www.w3.org/2000/svg" viewBox="0 0 325.02 167.59"><defs><style>.cls-1{fill:#ba3b35;}.cls-2{fill:#fff;}.cls-3{fill:#3c4c7d;}</style></defs><title>Prancheta 1</title><polygon class="cls-1" points="302.43 166.58 0.89 166.58 23.48 0 325.02 0 302.43 166.58 302.43 166.58"/><polygon class="cls-2" points="303.09 167.59 0 167.59 4.39 137.41 307.87 137.41 303.09 167.59 303.09 167.59"/><polygon class="cls-2" points="65.27 138.17 138.8 13.4 159.2 138.17 65.27 138.17 65.27 138.17"/><polygon class="cls-3" points="72.54 161.35 128.03 64.41 146.39 161.52 72.54 161.35 72.54 161.35"/><path class="cls-2" d="M157.31,94.56l24.58-.67q0,6.74,2,10.36,3.25,5.85,10.61,6.17c3.66.16,6.59-.69,8.81-2.54a10.07,10.07,0,0,0,3.8-6.61,8.44,8.44,0,0,0-2-6.64q-2.48-3-12.45-6-16.32-5-22.64-12.41t-5-18.39a29,29,0,0,1,5.38-13.48,28.56,28.56,0,0,1,12.38-9.6Q190.6,31.4,203.55,32q15.88.69,23.41,7.72t7.31,21.67l-24.34.55c-.13-4.25-1.09-7.37-2.91-9.37s-4.54-3.09-8.16-3.25c-3-.12-5.31.49-7,1.85A7.57,7.57,0,0,0,189,56.25a5.09,5.09,0,0,0,1.37,4.1q1.59,1.93,8.18,3.82,16.29,4.81,23,9.32a23.72,23.72,0,0,1,9.3,10.83,27.83,27.83,0,0,1,1.6,14A35,35,0,0,1,226,114.74a32.21,32.21,0,0,1-13.74,11q-8.4,3.58-20.45,3.06-21.15-.91-28.16-10.46t-6.34-23.77Z"/><polygon class="cls-2" points="34.72 33.43 103.17 33.43 99.87 53.59 59.23 53.59 56.55 69.97 91.26 69.97 88.15 88.91 53.44 88.91 47.16 127.24 19.36 127.24 34.72 33.43 34.72 33.43"/><polygon class="cls-2" points="239.66 34.65 313.29 34.65 309.27 57.32 284.57 57.32 272.33 126.48 248.11 126.48 260.35 57.32 235.65 57.32 239.66 34.65 239.66 34.65"/><path class="cls-3" d="M233.9,156.73l4.52-.29a3.71,3.71,0,0,0,.28,1.88,2,2,0,0,0,1.9,1.06,2.43,2.43,0,0,0,1.64-.53,2.06,2.06,0,0,0,.74-1.23,1.47,1.47,0,0,0-.32-1.19,4.69,4.69,0,0,0-2.24-1,8,8,0,0,1-4.06-2.12,3.88,3.88,0,0,1-.79-3.32,5.62,5.62,0,0,1,1.08-2.49,5.92,5.92,0,0,1,2.34-1.84,9.32,9.32,0,0,1,3.84-.64,6.17,6.17,0,0,1,4.24,1.25,4.73,4.73,0,0,1,1.18,3.91l-4.47.26a2.45,2.45,0,0,0-.46-1.7,1.9,1.9,0,0,0-1.47-.53,1.94,1.94,0,0,0-1.3.38,1.52,1.52,0,0,0-.57.95.86.86,0,0,0,.23.74,3,3,0,0,0,1.47.64,15.65,15.65,0,0,1,4.15,1.55,3.88,3.88,0,0,1,1.63,1.92,5,5,0,0,1,.19,2.54,6.9,6.9,0,0,1-1.3,3,6.61,6.61,0,0,1-2.6,2.09,9,9,0,0,1-3.77.7c-2.58,0-4.27-.6-5.09-1.73a6.22,6.22,0,0,1-1-4.29Z"/><polygon class="cls-3" points="251.91 145.36 256.6 145.4 255.63 151.4 260.75 151.44 261.72 145.43 266.43 145.47 263.64 162.62 258.94 162.59 260.06 155.65 254.94 155.61 253.81 162.55 249.12 162.52 251.91 145.36 251.91 145.36"/><path class="cls-3" d="M272.24,154.13a5.93,5.93,0,0,0,.25,3.74,2.33,2.33,0,0,0,2.14,1.15,3.24,3.24,0,0,0,2.52-1.09,8.07,8.07,0,0,0,1.48-4,5.4,5.4,0,0,0-.29-3.54,2.39,2.39,0,0,0-2.17-1.14,3.26,3.26,0,0,0-2.46,1.12,7.32,7.32,0,0,0-1.47,3.75Zm-4.68-.06a11.12,11.12,0,0,1,3.13-6.52,8.5,8.5,0,0,1,6.15-2.3q3.78,0,5.46,2.34t1,6.46a13.17,13.17,0,0,1-1.69,4.92,8.3,8.3,0,0,1-7.47,4,7.94,7.94,0,0,1-4.1-1,5.49,5.49,0,0,1-2.25-2.95,10.09,10.09,0,0,1-.23-5Z"/><path class="cls-3" d="M290.7,153h1.15a3,3,0,0,0,2-.52,2.16,2.16,0,0,0,.77-1.36,1.84,1.84,0,0,0-.25-1.37c-.26-.38-.83-.57-1.7-.58h-1.34L290.7,153Zm-3.52-7.35,7.79.06a4.25,4.25,0,0,1,3.59,1.4,5,5,0,0,1,.64,3.9,6.64,6.64,0,0,1-2,4.05,6.39,6.39,0,0,1-4.46,1.44l-2.56,0-1,6.36-4.71,0,2.79-17.16Z"/></svg>