<?xml version="1.0" encoding="utf-8"?>
<!-- Generator: Adobe Illustrator 22.0.1, SVG Export Plug-In . SVG Version: 6.00 Build 0)  -->
<svg version="1.1" id="Camada_1" xmlns="http://www.w3.org/2000/svg" xmlns:xlink="http://www.w3.org/1999/xlink" x="0px" y="0px"
	 viewBox="0 0 227.2 203.5" style="enable-background:new 0 0 227.2 203.5;" xml:space="preserve">
<style type="text/css">
	.st0{fill:#FFFFFF;}
</style>
<g>
	<g>
		<path class="st0" d="M78.7,8c-8.2,15.7-13.8,26.6-19.2,36.1c1.2,0.2,1.8,0.3,3.1,0.3c3.9,0,9-0.3,13.8-1.1c0.6,0,0.5,0.6-0.1,0.8
			c-4.1,0.8-9.8,1.2-13.7,1.2c-1.5,0-2.5-0.1-3.9-0.2C44.9,67.2,35.6,83.4,16.5,83.4c-6.9,0-16.3-2.8-16.3-13.2c0-2.5,0.7-5.8,2-8.5
			c0.1-0.3,1-0.4,0.8,0.3c-0.5,1.3-0.7,2.4-0.7,3.7c0,6.5,6.8,15.1,17.6,15.1c17.6,0,24.2-15,34.7-36.1c-9.4-1.5-15.3-5.2-15.3-12.2
			c0-7.6,8.9-19.2,35.7-25.6C77,3.2,79.1,0,80.6,0c0.5,0,1.1,4.3,1.1,4.8s-0.1,1-0.4,1.2C80.2,6.8,79.4,7.2,78.7,8z M43.3,31.1
			c0,6.8,3.3,10.6,11.8,12.6C60.3,33.4,65.4,23.9,74,8.5C61.3,11,43.3,18,43.3,31.1z"/>
		<path class="st0" d="M93.2,58.1c-2.8,2.5-6.8,5.5-10.3,5.5c-2.6,0-3.7-1.3-3.7-3.3c0-1.5,0.5-3.5,1.3-5.1c0.1-0.2-0.2-0.6-0.4-0.4
			c-3.1,3.9-7.1,8.4-11.3,8.4c-1.6,0-3.2-0.8-3.2-2.8s1.3-3.8,5.5-8.6c3.3-3.9,6.1-7.2,6.1-9c0-0.5-0.3-0.8-0.7-0.8
			c-1.3,0-4,1.2-6.9,4.1c-0.4,0-0.5-0.2-0.5-0.5c2.7-2.7,5.9-4.5,8.6-4.5c1.6,0,2.4,0.9,2.4,2.4c0,4.1-11.5,14.2-11.5,17.8
			c0,0.6,0.6,0.9,1.2,0.9c4.9,0,12.8-11.1,18.3-20.6c0.2-0.3,0.6-0.4,0.8-0.4c0.5,0,1.6,0.9,1.6,2.4c0,1.8-9.2,12.1-9.2,17.3
			c0,0.9,0.6,1.9,2.2,1.9c1.9,0,5.4-1.5,9.4-5.5C93.2,57.3,93.4,57.7,93.2,58.1z"/>
		<path class="st0" d="M102.9,43.6c-1.9,3.8-5.5,10.4-5.5,14c0,2.4,0.8,4.6,3.9,4.6c4.9,0,10.1-2.7,15.7-6.8
			c0.8-0.6,1.2,0.1,0.5,0.6c-7.1,5.1-13.4,7.5-19.2,7.5c-3.4,0-5-1.2-5-4.9c0-4.1,4.6-11.7,7-15.9c10.9-19.2,20.8-31.2,22.4-32.8
			c3.9-4.1,9.9-7.7,14.3-7.7c4.5,0,6.9,1.9,6.9,4.1c0,1.7-0.9,3.8-2.4,6C135.3,21.5,116.7,37.7,102.9,43.6z M140.2,9.1
			c0-2.9-1.5-5.2-5.2-5.2c-6.6,0-9.4,4.5-13.4,10.4c-6,8.9-14.6,22.5-18.2,28.4c12.9-6.3,29.7-20.2,35.3-28.7
			C139.3,13.1,140.2,10.8,140.2,9.1z"/>
		<path class="st0" d="M123.6,60.9c-2.7,1.6-5.1,2.5-6.7,2.5c-1.2,0-1.9-0.5-1.9-1.8c0-3.2,5.4-9.8,8.1-15.7
			c0.4-0.8,0.6-1.5,0.6-1.9c0-0.6-0.3-0.8-0.8-0.8c-0.8,0-5.2,1.5-6.4,1.9c-0.7,0.2-1.2-0.6-0.1-0.9c4.9-1.3,9.6-3.1,11-3.1
			c0.7,0,1.2,0.2,1.2,0.8c0,0.5-0.2,1.2-0.9,2c-1.6,1.9-8.4,12.7-8.4,15.5c0,1,0.5,1.5,1.4,1.5c0.7,0,1.6-0.2,2.6-0.8
			c4.2-2.3,8.6-5.7,12.8-9.4c0.3-0.2,0.6,0,0.6,0.4C132.5,54.8,127.9,58.4,123.6,60.9z M134.3,30.4c-0.9,0-1.4-0.8-1.4-1.6
			c0-1.2,1.6-3.2,2.8-3.2c1.1,0,1.7,0.8,1.7,1.5C137.4,28.7,134.9,30.4,134.3,30.4z"/>
		<path class="st0" d="M155,39.8c0,0.1-0.1,0.3-0.2,0.5c-3.5,5-7.9,14.6-7.9,19.9c0,2,0.9,3.2,2.5,3.2c0.8,0,1.7-0.3,2.8-0.8
			c4.3-2,9.8-7.4,13-12.2c0.4-0.6,1-0.1,0.6,0.4c-3.6,4.9-9.2,10.6-14.3,13.2c-2.3,1.2-4.3,1.9-5.7,1.9c-1.9,0-2.7-1.2-2.7-3.4
			c0-4.1,2.8-10.3,4.6-13.9c-2.4,3.5-10.8,14.9-16,14.9c-1.4,0-2.1-0.8-2.1-2.2c0-3.2,5.3-11.2,13.6-16.9c2.4-1.6,5.3-3.2,7.8-3.2
			c1.8-2.9,2.1-4,2.6-4C153.9,37.8,155,39.7,155,39.8z M149.9,41.9c-2.2,0-4.6,1.7-6.8,3.7c-2.3,2.1-9.5,9.9-9.5,14.6
			c0,0.8,0.6,1.1,1.1,1.1c1.1,0,2.7-1.4,3.6-2.3c4.4-4.3,8.5-9.7,12.3-17C150.4,41.9,150.1,41.9,149.9,41.9z"/>
		<path class="st0" d="M172,63.5c-1.4,0-2.3-0.8-2.3-2.3c0-1.3,0.9-2.9,2-4.9c1.7-3.1,4.3-7.6,5.4-10.4c0.2-0.6-0.3-0.8-0.7-0.5
			c-2.9,1.9-7.3,5.1-9.8,8c-2.1,3.5-3.6,5.9-5.5,9.1c-0.3,0.5-0.6,1-1.1,1s-1.6-1.8-1.6-2.6c0-0.8,3.1-4.2,4.5-5.8
			c2.4-3.9,4.8-9.7,5.2-11.1c0-0.4-0.1-0.7-0.8-0.7c-1,0-1.8,0.4-2.5,0.6c-0.2-0.5-0.2-0.8,0.5-1c2-0.6,5.8-2.1,6.5-2
			c0.9,0.1,0.6,1.1,0.3,1.8c-0.8,1.8-3.2,6.3-4.6,8.8c4-3.6,9-7.6,13.5-10.4c0.5-0.3,1-0.4,1.5,0.2c0.4,0.5,0.4,0.8,0.3,1.3
			c-3.5,5.2-6.8,11.1-8.4,14.5c-0.4,0.8-0.7,2-0.7,2.6c0,1.2,0.7,1.8,1.9,1.8c2.1,0,8.1-2.5,15.7-10.2c0.5-0.5,1.2-0.1,0.5,0.6
			C187.5,56.2,178.5,63.5,172,63.5z"/>
		<path class="st0" d="M209.3,39.8c0,0.1-0.1,0.3-0.2,0.5c-3.5,5-7.9,14.6-7.9,19.9c0,2,0.9,3.2,2.5,3.2c0.8,0,1.7-0.3,2.8-0.8
			c4.3-2,9.8-7.4,13-12.2c0.4-0.6,1-0.1,0.6,0.4c-3.6,4.9-9.2,10.6-14.3,13.2c-2.3,1.2-4.3,1.9-5.7,1.9c-1.9,0-2.7-1.2-2.7-3.4
			c0-4.1,2.8-10.3,4.6-13.9c-2.4,3.5-10.8,14.9-16,14.9c-1.4,0-2.1-0.8-2.1-2.2c0-3.2,5.3-11.2,13.6-16.9c2.4-1.6,5.3-3.2,7.8-3.2
			c1.8-2.9,2.1-4,2.6-4C208.2,37.8,209.3,39.7,209.3,39.8z M204.2,41.9c-2.2,0-4.6,1.7-6.8,3.7c-2.3,2.1-9.5,9.9-9.5,14.6
			c0,0.8,0.6,1.1,1.1,1.1c1.1,0,2.7-1.4,3.6-2.3c4.4-4.3,8.5-9.7,12.3-17C204.7,41.9,204.4,41.9,204.2,41.9z"/>
	</g>
	<g>
		<path class="st0" d="M51.2,138.3c-0.8-0.1-0.6-0.9,0.1-0.9c1.1,0.1,2.1,0.2,2.7,0.2c0.6-0.8,2-0.7,3.2-2.4c0.3,0,0.4,0.4,0.4,0.7
			l0.1,1.5c11.1-0.6,22.9-8.2,22.9-16.6c0-5-4.7-6.3-7.9-6.3c-3.3,0-8.8,0.9-15.7,3.4c-11.8,18.2-19.1,29-25.2,36.8
			c-9,11.5-17.9,14.8-24.2,14.8c-3.3,0-7.6-1.4-7.6-7c0-13.5,26.3-34.3,55.8-45.1c3.6-5.5,6.6-10.4,9.1-14.6c1-1.7,2.3-3.7,3.8-4.5
			c0.5-0.2,0.8-0.1,0.5,0.5c-2.1,3.5-6.6,10.7-11.5,18.1c2.7-1,5.9-2,9.2-2.7c3.4-0.7,6.7-1.1,9.5-1.1c6.1,0,10.1,1.3,10.1,5.8
			c0,9.2-15.2,18-28.8,19.4c1,21.1,10.2,43.6,28.6,43.6c5.9,0,14-1.3,19.7-9.9c0.4-0.5,1.3-0.7,1.3,0.2
			c-3.6,5.2-10.5,11.3-22.7,11.3c-16.5,0-31-13.3-31-42.3c0-0.5,0-1.5,0.1-2.7C52.9,138.5,52.1,138.4,51.2,138.3z M55.1,118.5
			C28.7,127.9,3,154.5,3,164.7c0,1.2,0.4,3.9,5.2,3.9c4,0,10.8-1,22.6-16.2C38.4,142.6,49.7,126.6,55.1,118.5z"/>
		<path class="st0" d="M101.9,145.7c0,0.1-0.1,0.3-0.2,0.5c-3.5,5-7.9,14.6-7.9,19.9c0,2,0.9,3.2,2.5,3.2c0.8,0,1.7-0.3,2.8-0.8
			c4.3-2,9.8-7.4,13-12.2c0.4-0.6,1-0.1,0.6,0.4c-3.6,4.9-9.2,10.6-14.3,13.2c-2.3,1.2-4.3,1.9-5.7,1.9c-1.9,0-2.7-1.2-2.7-3.4
			c0-4.1,2.8-10.3,4.6-13.9c-2.4,3.5-10.8,14.9-16,14.9c-1.4,0-2.1-0.8-2.1-2.2c0-3.2,5.3-11.2,13.6-16.9c2.4-1.6,5.3-3.2,7.8-3.2
			c1.8-2.9,2.1-4,2.6-4C100.8,143.7,101.9,145.6,101.9,145.7z M96.8,147.8c-2.2,0-4.6,1.7-6.8,3.7c-2.3,2.1-9.5,9.9-9.5,14.6
			c0,0.8,0.6,1.1,1.1,1.1c1.1,0,2.7-1.4,3.6-2.3c4.4-4.3,8.5-9.7,12.3-17C97.3,147.8,97,147.8,96.8,147.8z"/>
		<path class="st0" d="M62.3,192.6c0.2-0.2,0.4-0.2,0.6-0.2c-0.1,0.7-0.1,1.3-0.1,1.8c0,5.6,3.7,8.2,10.4,8.2
			c12.5,0,21.2-11.1,28-24.2c5.8-11.1,10.6-21,15.1-29.3c-1.3,0-8.5,0.1-9.5,0.1c-0.7,0-1.4,0-1.4-0.6c0-0.2,0.3-0.3,0.6-0.3
			c3.6,0,7.4,0,10.8-0.1c7.1-12,14.8-24.3,27.2-32c2.2-1.4,5.4-2.6,8.2-2.6c3.9,0,5.4,0.7,5.4,2.9c0,0.9-0.7,2.2-2.7,2.2
			c-1,0-1.8-0.4-2.6-1.1c-0.9-0.8-2.2-1.2-3.9-1.2c-7.5,0-13.4,6.6-27.4,31.9c3.5,0,8.7,0,13.2-0.2c0.4,0.3,0,0.9-0.5,1
			c-4.6,0-9.1,0-13.2,0.1c-5.2,9.4-10,18.5-15.7,28.1c-10.6,18-22,26.4-33.2,26.4c-6.1,0-11.5-1.5-11.5-4.7
			C60.6,196.6,61.5,194.3,62.3,192.6z"/>
		<path class="st0" d="M147.2,145.7c0,0.1-0.1,0.3-0.2,0.5c-3.5,5-7.9,14.6-7.9,19.9c0,2,0.9,3.2,2.5,3.2c0.8,0,1.7-0.3,2.8-0.8
			c4.3-2,9.8-7.4,13-12.2c0.4-0.6,1-0.1,0.6,0.4c-3.6,4.9-9.2,10.6-14.3,13.2c-2.3,1.2-4.3,1.9-5.7,1.9c-1.9,0-2.7-1.2-2.7-3.4
			c0-4.1,2.8-10.3,4.6-13.9c-2.4,3.5-10.8,14.9-16,14.9c-1.4,0-2.1-0.8-2.1-2.2c0-3.2,5.3-11.2,13.6-16.9c2.4-1.6,5.3-3.2,7.8-3.2
			c1.8-2.9,2.1-4,2.6-4C146.1,143.7,147.2,145.6,147.2,145.7z M142.1,147.8c-2.2,0-4.6,1.7-6.8,3.7c-2.3,2.1-9.5,9.9-9.5,14.6
			c0,0.8,0.6,1.1,1.1,1.1c1.1,0,2.7-1.4,3.6-2.3c4.4-4.3,8.5-9.7,12.3-17C142.6,147.8,142.3,147.8,142.1,147.8z"/>
		<path class="st0" d="M159.7,169.5c-4,0-7.3-1-7.3-4.6c0-1.9,0.7-4.1,2.4-6.7c2.4-3.8,6.6-8.3,10.5-10.3c1.4-0.7,2.8-1,3.6-1
			c1.4,0,2,0.9,2,1.7c0,4.2-9.4,11.2-14.4,13.3c-0.2,0.7-0.2,1.4-0.2,1.9c0,2.1,1.8,4.2,5.7,4.2c4.9,0,11.6-3,17.6-10.3
			c0.5-0.6,0.7,0.2,0.3,0.6C173.7,165.5,166.6,169.5,159.7,169.5z M168.7,149c0-1.3-1.1-1.6-2.9-0.5c-3.8,2.3-7.7,7.7-9.1,12.6
			C163.6,157.7,168.7,151.2,168.7,149z"/>
		<path class="st0" d="M186.2,149.5c-1.9,3.8-5.5,10.4-5.5,14c0,2.4,0.8,4.6,3.9,4.6c4.9,0,10.1-2.7,15.7-6.8
			c0.8-0.6,1.2,0.1,0.5,0.6c-7.1,5.1-13.4,7.5-19.2,7.5c-3.4,0-5-1.2-5-4.9c0-4.1,4.6-11.7,7-15.9c10.9-19.2,20.8-31.2,22.4-32.8
			c3.9-4.1,9.9-7.7,14.3-7.7c4.5,0,6.9,1.9,6.9,4.1c0,1.7-0.9,3.8-2.4,6C218.6,127.4,200,143.6,186.2,149.5z M223.5,115
			c0-2.9-1.5-5.2-5.2-5.2c-6.6,0-9.4,4.5-13.4,10.4c-6,8.9-14.6,22.5-18.2,28.4c12.9-6.3,29.7-20.2,35.3-28.7
			C222.6,119,223.5,116.7,223.5,115z"/>
	</g>
	<g>
		<path class="st0" d="M107,110.1c-4,0-7.3-1-7.3-4.6c0-1.9,0.7-4.1,2.4-6.7c2.4-3.8,6.6-8.3,10.5-10.3c1.4-0.7,2.8-1,3.6-1
			c1.4,0,2,0.9,2,1.7c0,4.2-9.4,11.2-14.4,13.3c-0.2,0.7-0.2,1.4-0.2,1.9c0,2.1,1.8,4.2,5.7,4.2c4.9,0,11.6-3,17.6-10.3
			c0.5-0.6,0.7,0.2,0.3,0.6C121,106.1,113.9,110.1,107,110.1z M116,89.6c0-1.3-1.1-1.6-2.9-0.5c-3.8,2.3-7.7,7.7-9.1,12.6
			C110.9,98.3,116,91.8,116,89.6z"/>
	</g>
</g>
</svg>
