<svg id="Layer_1" data-name="Layer 1" xmlns="http://www.w3.org/2000/svg" xmlns:xlink="http://www.w3.org/1999/xlink" viewBox="0 0 538.1 150.31"><defs><style>.cls-1,.cls-2,.cls-3{fill-rule:evenodd;}.cls-1{fill:url(#linear-gradient);}.cls-2{fill:#a81118;}</style><linearGradient id="linear-gradient" x1="509.26" y1="76.57" x2="538.62" y2="76.57" gradientUnits="userSpaceOnUse"><stop offset="0" stop-color="#fff"/><stop offset="1" stop-color="#c2c2c4"/></linearGradient></defs><title>Artboard 1</title><path class="cls-1" d="M526.84,40c-11.61-18.7-11-23.37-11-23.37.15-11.39,15-13.83,15-13.83h0c-.23,0-1.85,0-4.06.15-20.24,1.47-25.77,17-25.2,30.27,1.32,30.22,29.38,51.75,21.28,86-6-7-8.72-16.9-15.2-23.45,3.56,22.88-.37,48.2-20.09,51.82l0,0c6.18,3.32,29.65,2.62,29.65,2.62,14.63.6,13.57-9.05,13.57-9.05s.15-2.11,6-40.71S526.84,40,526.84,40Z"/><path class="cls-2" d="M339.86,45.13c.55,2.56.76,7,0,9.56-5.37-.15-13.66-1.81-16.5,1.73-.84,2.35-.75,6.26-.44,9.12H339a93.14,93.14,0,0,1,0,11.81c-4.6.15-11-.09-16.14.15,0,13.46.23,29.29-.3,42.89-5,.38-12.59.31-17.41.16-.15-16.7-.91-44.11,0-61.52C305.92,43.51,323.27,39.6,339.86,45.13Z"/><path class="cls-2" d="M404.33,44.4a67.72,67.72,0,0,1,0,13.65c-5.37-.27-11.88,0-17.64-.12-.12-3.61.14-7.68-.12-11.19C389.1,45.23,402.6,42.82,404.33,44.4Z"/><path class="cls-2" d="M216.76,51.64c0,4.63-.08,9.39-.08,14,5.28-.15,10.45-.06,15.23.23.27,2.75.34,8.44.27,11.42-4.38.42-11,0-15.69.23-.37,7.31,0,24.91.49,30.42.25,3,9.64,1.55,15.46,1.73a33.28,33.28,0,0,1,.6,10.63c-9.95,5.88-33.46,6.87-33.4-16.66,0-14.59-.37-37.47-.15-49.68C203.34,52.32,211.1,50.5,216.76,51.64Z"/><path class="cls-2" d="M18.25,122.28c0,4.84,0,10,0,14.39-4.16,2-11.63,2.7-18.26,2.63C.46,123,.31,106,.31,87.45c0-5.53-1.09-14,1.13-16.81,4.15-5.2,18.1-5.41,24.49-5.82,10.86-.7,20,1.56,24.76,6.08,9.4,9,9.21,34.2,1.73,44.29C45.75,124.2,32.2,124.32,18.25,122.28ZM39.83,96.52C40.75,81.28,35,70.91,18.55,77v33.87C33.45,114.66,39.05,109.35,39.83,96.52Z"/><path class="cls-2" d="M89.12,64.46c13.17-1.48,24.66,1.3,29.93,8.36,8.32,11.15,6.76,39.21-5.61,45.92s-33.85,4.69-41.69-4.34c-7.62-8.79-6.94-31.73-1.74-40C74,68.12,80.18,65.46,89.12,64.46Zm-1.74,13c-5.45,5.7-4.66,27.41.44,31.7,3.61,3,11.51,2.69,14.76,0s3.88-8.77,3.91-16.06c.05-11.58-1.91-19.54-13.89-17.81A9.61,9.61,0,0,0,87.38,77.48Z"/><path class="cls-2" d="M260.41,64.46c13.16-1.48,24.66,1.3,29.93,8.36,8.32,11.15,6.75,39.21-5.61,45.92s-33.85,4.69-41.69-4.34c-7.62-8.79-6.94-31.73-1.74-40C245.31,68.12,251.46,65.46,260.41,64.46Zm-1.74,13c-5.46,5.7-4.66,27.41.44,31.7,3.6,3,11.51,2.69,14.76,0s3.88-8.77,3.91-16.06c.05-11.58-1.91-19.54-13.9-17.81A9.61,9.61,0,0,0,258.67,77.48Z"/><path class="cls-2" d="M436.37,64.46C449.54,63,461,65.76,466.3,72.82c8.33,11.15,6.76,39.21-5.61,45.92s-33.85,4.69-41.69-4.34c-7.62-8.79-6.94-31.73-1.73-40C421.27,68.12,427.43,65.46,436.37,64.46Zm-1.73,13c-5.46,5.7-4.67,27.41.43,31.7,3.61,3,11.51,2.69,14.76,0s3.88-8.77,3.91-16.06c.05-11.58-1.91-19.54-13.89-17.81A9.54,9.54,0,0,0,434.64,77.48Z"/><path class="cls-2" d="M188.26,120.92a128.37,128.37,0,0,1-17.11-.07c-.61-12.36,2.41-41.17-4.52-44.31-3.52-1.6-10.3-.69-14.93-.1-.29,14.63-.31,30.76-.27,44.83-4.56.68-12.52,1.08-17.07.33,0-15.83-.61-33.17-.3-48.55.3-5.11,10.41-7.52,21.41-8.44,13.42-1.13,23.1.67,28.53,6.29,5.19,5.37,5,15,4.71,25.15C188.46,105,188.51,114.24,188.26,120.92Z"/><path class="cls-2" d="M378.24,65c.72,2.83,1,9.49.29,12.32-5,0-10.31-.18-15.63,1.3-.29,14,.31,28.19.19,41.76-4.52.15-13.3.79-17.87.11.12-7.8-.22-15.14-.22-24.43,0-7.2-.57-20.58,1.39-24.39C349.59,65.44,369.48,65.08,378.24,65Z"/><path class="cls-2" d="M387.9,65.21c5.25.24,11.52-.07,16.38.16.12,17.19-.29,37.64.13,55a72.75,72.75,0,0,1-17.57.16c0-17.38,0-36.09-.25-54C386.53,65.85,386.36,65.14,387.9,65.21Z"/><path class="cls-3" d="M531,1.66c0,.71,0,1.17,0,1.17s-1.72,0-4.11.15c-20.24,1.47-25.77,17-25.2,30.27,1.32,30.22,29.38,51.75,21.28,86-6-7-8.72-16.9-15.2-23.45,3.56,22.91-.38,48.26-20.16,51.83-.71-.7,4.14-4.49,4.9-6.74a23.82,23.82,0,0,0,1.47-9.05c-.58-10.61-3.23-21.06-4.88-31.69-3.38-21.74-5.41-45,3-64.21,4.87-11.06,3.32-34.65,17.64-35.85C516.87-.53,521,2.83,531,1.66Z"/></svg>