<svg id="Camada_1" data-name="Camada 1" xmlns="http://www.w3.org/2000/svg" viewBox="0 0 104.34 22.88"><defs><style>.cls-1{fill:#be0911;}.cls-1,.cls-2,.cls-3{fill-rule:evenodd;}.cls-2{fill:#002678;}.cls-3{fill:#fff;}</style></defs><title>Prancheta 1</title><path class="cls-1" d="M0,22.85l104.25,0,0-5c-1.83-.46-82.69-.16-91.14-.15-3.53,0-10-.38-13.2.1Z"/><path class="cls-2" d="M48.59,15c4.55.09,5.44.56,7.28-1.42,1.71-1.83,2.86-1.8,7.09-1.45l.11,2.91,2.83,0,0-11.67c-3.11-.29-2.85-.12-4.32,1.45l-6,6C54,12.36,54.44,13,51.38,12.84l0-9.48L48.61,3.3Z"/><path class="cls-2" d="M89.89,15c1.66.09,2.88.31,3.78-.55.67-.64,1.42-1.54,2.1-2.26l5.66-.08V15l2.88,0V3.43c-3.13-.76-3.49.47-6.44,3.53-1,1-4,4.45-5.18,5.06V3.36L89.91,3.3Z"/><path class="cls-2" d="M40.79,3.53C33,5.45,36.26,17,43.58,14.87,50.64,12.86,48.08,1.73,40.79,3.53Z"/><path class="cls-2" d="M79,15c4.43.32,10.09.13,10.07-5.83S83.49,3,79,3.35Z"/><polygon class="cls-2" points="67.4 15.06 70.23 15.04 70.54 8.12 74.53 15.07 77.47 15.05 77.52 3.28 74.67 3.32 74.63 10.63 70.37 3.3 67.45 3.3 67.4 15.06"/><path class="cls-2" d="M9.46,15l2.8.13.07-4.86c.63.34,2.51,4,2.88,4.85h2.38l-1.73-3.34c1-1,1.55-1.14,2-2.7,1.31-4.3-2.72-6.51-8.39-5.64Z"/><path class="cls-2" d="M0,15l2.79.09.08-2.91c2-.15,3.32-.1,4.45-1.2C9,9.38,11.17,2.22,0,3.36Z"/><polygon class="cls-2" points="18.89 14.96 26.02 15.06 26.08 12.87 21.78 12.86 21.73 10.35 26.07 10.27 26.05 8.09 21.77 8.07 21.75 5.57 26.1 5.51 26.04 3.29 18.91 3.32 18.89 14.96"/><path class="cls-2" d="M29,13.49c-.19,1-.28.63-.63,1.55L30,16.1l1-1.36a10.61,10.61,0,0,0,4.45.08l.06-3.14c-7.66,2.46-7.57-7.39,0-5l0-3.14C26.3,2.34,24.94,10.66,29,13.49Z"/><path class="cls-1" d="M53.66,9a108.05,108.05,0,0,0,9.45-9l-9.4,0Z"/><path class="cls-3" d="M40.78,6.61c-3.68,2-.59,6.85,2.61,5.22S44.23,4.75,40.78,6.61Z"/><path class="cls-3" d="M81.87,12.85c5.9.23,5.76-7.55.07-7.31Z"/><path class="cls-3" d="M2.86,9.85c3.74.64,4.16-4.54.08-4.3Z"/><path class="cls-3" d="M12.32,9.88c3.92.52,3.9-4.69.06-4.32Z"/><path class="cls-3" d="M98.12,9.93l3.31,0V6.55a2.55,2.55,0,0,0-.52.37Z"/><path class="cls-3" d="M59.71,9.87,63,9.93l0-3.37A38.29,38.29,0,0,0,59.71,9.87Z"/></svg>