<svg version="1" xmlns="http://www.w3.org/2000/svg" width="960" height="960" viewBox="0 0 720.000000 720.000000"><path d="M177.8 48.5c-.1.1-2.8.5-5.8.9-3 .3-6.8.8-8.5 1.2-1.6.3-4.1.7-5.5.9-1.4.2-2.5.4-2.5.5 0 .1-1.1.4-2.4.6-9.8 1.8-32.7 9.3-38.1 12.5-.8.5-2.2 1.2-3 1.5-5.9 2.2-23.6 12.2-29.1 16.6-2 1.5-4.1 2.8-4.7 2.8-.6 0-1.2.3-1.4.7-.1.5-2.8 2.8-5.8 5.3-11.4 9.3-19.4 17.3-27.7 27.5-2.6 3.3-5.4 6.6-6.1 7.3-.6.7-1.2 1.7-1.2 2.1 0 .4-.9 1.6-1.9 2.8-1 1.1-2.6 3.3-3.5 4.9-.9 1.6-2.6 4.5-3.8 6.4-3.4 5.7-7.2 13.4-7 14.2.1.5-.2.8-.6.8-.6 0-3.4 5.9-3.7 8 0 .3-.6 1.4-1.2 2.5-2.9 5.3-10.8 34.4-11.8 43.5-.2 1.4-.7 5.4-1.2 9-1 7.9-1 42.2 0 50.5.7 5.7 2 14.4 2.2 15.5.1.3.5 2.7 1 5.5.4 2.7 1 5.4 1.3 6 .4.5.7 2.1.8 3.5.1 1.4.2 2.5.4 2.5.1 0 .3.9.5 2 2.7 17.7 20.1 61.1 34.3 86 5.9 10.3 22.8 36.1 25.2 38.5.3.3 4.1 4.9 8.4 10.4 4.3 5.4 10.4 12.6 13.5 16 8.8 9.7 34 34.6 41 40.6 3.5 3 7.9 6.8 9.7 8.5 1.8 1.6 4.1 3.7 5.1 4.5 4.1 3.3 13.8 11.5 14.3 12 .3.3 2.5 2.1 4.8 3.9 2.4 1.9 5.3 4.2 6.5 5.2 4.2 3.6 24.3 19.3 33.7 26.3 5.2 3.9 10.2 7.6 11 8.3.8.7 7.4 5.5 14.5 10.8 7.2 5.2 13.9 10.2 15 11.1 4.6 3.4 19.5 14.3 23.8 17.2 2.5 1.8 5.1 3.8 5.9 4.4.7.7 3.2 2.6 5.6 4.1 2.3 1.5 5 3.4 6 4.2.9.8 6.4 4.8 12.2 8.9 5.8 4.1 11.2 8 12.1 8.8.9.7 2.3 1.7 3.1 2.3 5.4 3.6 17.8 12.4 18.8 13.5.3.3 3.2 2.3 6.5 4.5s6.2 4.3 6.5 4.6c.3.3 3.8 2.9 7.8 5.8l7.2 5.1 3.3-2.2c1.7-1.3 3.4-2.5 3.7-2.8.6-.7 48.6-35.2 50.7-36.5.9-.6 2.4-1.5 3.2-2.2 6.1-4.6 13.1-9.6 30.6-22.3 11-7.9 20.5-14.8 21-15.2.6-.5 3.5-2.6 6.5-4.8 9.1-6.6 10-7.3 12-8.9 1-.9 5.3-4.1 9.5-7.1s8.7-6.4 10-7.5c1.2-1.1 3.5-2.9 5-4 4.7-3.3 13.9-10.3 15.5-11.8.8-.7 4.4-3.5 8-6.2 3.6-2.7 7-5.4 7.6-6 .7-.5 3.1-2.6 5.5-4.5 11.3-9.1 24.3-20.1 32.8-27.8 5.2-4.7 10.3-9.2 11.4-10.1 3.1-2.6 25.8-25.3 31.7-31.8 8.6-9.4 16.9-19.1 22.7-26.9 1.2-1.6 2.9-3.8 3.7-4.9 5.4-7 10.6-14.7 10.6-15.5 0-.6.3-1 .8-1 .4 0 1.8-2 3.2-4.5 1.4-2.5 2.9-4.5 3.4-4.5s.6-.3.3-.7c-.4-.3-.1-1.3.7-2.2 2.5-2.8 15.7-28.1 21.1-40.4 6.8-15.5 15-39.2 16.9-48.7.3-1.4.9-4 1.5-5.8.5-1.8 1-3.5 1-3.7 0-.5 1-6.1 1.8-10 .2-1.1.6-3.6.9-5.5.3-1.9.7-4.6 1-6 1.3-8 1.9-18.6 1.8-35 0-16.5-.4-23.6-1.8-32-.3-1.4-.7-4.1-1-6-.6-3.4-1.1-6.5-2-10.5-.8-3.7-5.6-20-6.5-22-.5-1.1-1.5-3.6-2.1-5.5-1.6-4.3-12.6-26.6-14-28.3-.6-.6-3.1-4.3-5.6-8.2-9.2-14-25.5-31.6-37.4-40.5-1.8-1.4-3.8-3-4.4-3.5-.6-.6-3.3-2.6-6.1-4.5-2.7-1.8-5.2-3.7-5.5-4-1.4-1.8-31.1-17-33.3-17-.7 0-1.7-.4-2.2-.9-2.3-2-31.7-10.4-40.5-11.5-1.9-.3-3.5-.5-3.5-.6 0-.7-15.1-1.4-28.5-1.5-20.4 0-27.9.8-42.5 4.5-4.4 1.1-9 2.3-10.2 2.5-5.1 1.2-19.4 6.9-28.4 11.4-8.3 4.2-27.4 16.1-28.9 18-.3.3-2.1 1.9-4 3.5-16.9 13.7-33.5 34.2-44.6 55.2-2.6 4.9-5.2 9.4-5.8 10.1-.8.9-2.3-1.2-6.1-8.5-2.7-5.3-5.2-9.9-5.5-10.2-.3-.3-2.7-3.9-5.4-8-7.8-11.9-20.7-26.8-29.7-34.5-7.5-6.3-9.8-8.2-12.3-10-1.6-1.1-3.4-2.6-4.1-3.3-.8-.6-1.5-1.2-1.8-1.2-.2 0-4.4-2.4-9.3-5.4-9-5.4-24.4-12.9-24.4-11.9 0 .3-.6.1-1.2-.4-1-.8-7.3-3.3-9.8-3.8-.3-.1-2.5-.7-5-1.5-2.5-.7-6.1-1.6-8-2.1-1.9-.4-4.6-1-6-1.3-1.4-.3-4.7-.9-7.5-1.2-2.7-.4-5.4-.9-6-1.2-1-.6-40-1.3-40.7-.7zM238 86.4c1.4.2 4.1.7 6 1.1 18 3.3 41.4 12.2 53.6 20.5 2.5 1.6 4.7 3 5 3 .2 0 3.5 2.3 7.2 5.2 8.3 6.4 21.2 19.2 28.1 27.8 2.8 3.6 5.6 7 6.1 7.7.6.7 1 1.5 1 1.8 0 .3 1.5 2.7 3.3 5.3 1.8 2.6 5.1 8.2 7.2 12.4 2.2 4.3 4.2 7.8 4.5 7.8.3 0 2.3-3.5 4.5-7.8 2.1-4.2 4.3-8.2 4.7-8.7.4-.6 3-4.4 5.7-8.5 5.6-8.5 16.7-22 18.1-22 .6 0 1-.7 1-1.5s.4-1.5.8-1.5c.5 0 2.6-1.7 4.8-3.8 18.8-18.3 49.1-32.9 78.4-38 9.3-1.7 14.9-2 29.5-1.7 20.1.4 22.9.7 37 3.9 23.6 5.5 52.4 19.3 69.4 33.3 5.6 4.6 22.4 21.4 26.8 26.8 23.3 28.8 36.7 68.7 36.6 109 0 8.7-.9 27-1.3 27-.1 0-.3 1.3-.5 3-.2 1.6-.8 5.7-1.4 9-.6 3.3-1.4 7.3-1.7 9-1.6 8.8-8.2 31.9-10.9 38-.8 1.6-3 7-5 12-5 12.1-16.3 34.7-17.7 35.3-.5.2-.8.8-.8 1.4 0 1.5-19 29.8-20 29.8-.5 0-1 .6-1.2 1.4-.7 2.9-19.7 24.6-34.1 38.9-12.8 12.6-38.8 36-42.4 38-.8.5-3 2.4-5 4.3-1.9 1.9-3.8 3.4-4.1 3.4-.4 0-2 1.2-3.7 2.7-1.6 1.6-4.1 3.7-5.6 4.8-8.3 6.2-18.7 14.2-20.3 15.7-1.1 1-3.8 3-6 4.5-2.3 1.5-4.3 3.1-4.6 3.4-.3.3-5.2 4-11 8.2-5.8 4.2-11 8.1-11.6 8.6-.6.4-3.5 2.6-6.5 4.7s-5.5 4.2-5.7 4.6c-.2.5-.9.8-1.5.8-.7 0-2.7 1.3-4.5 2.8-5 4.3-7.5 6.1-10.4 8-1.4.9-14.4 10.2-28.8 20.7-14.4 10.4-28.1 20.3-30.4 21.9-2.2 1.6-7.8 5.5-12.3 8.8l-8.3 5.9-4.6-3.3c-2.6-1.8-5.6-4-6.8-4.8-1.1-.8-7.7-5.5-14.6-10.5-6.9-4.9-13.5-9.7-14.7-10.5-3.7-2.6-33.6-24.2-34.8-25.2-.5-.5-5.5-4.1-11-8-5.5-4-10.2-7.5-10.5-7.8-.3-.4-2-1.5-3.7-2.5-1.8-1.1-3.3-2.3-3.3-2.7 0-.4-.5-.8-1-.8-.6 0-1.8-.6-2.6-1.3-.8-.6-2-1.7-2.7-2.2-.7-.6-10.2-7.7-21.2-15.9-11-8.3-20.2-15.2-20.5-15.6-.3-.3-2.3-1.9-4.5-3.5s-4.9-3.7-6-4.6c-1.1-.9-7.4-6.1-14-11.5s-12.5-10.3-13.1-10.9c-.6-.5-4.5-3.9-8.5-7.5-9.3-8.2-23.8-22-29.8-28.3-10.3-10.9-13.8-14.7-17.6-19.2-2.2-2.7-4.8-5.8-5.7-6.9-1-1.2-3.1-3.9-4.8-6.1-1.6-2.2-3.5-4.7-4.3-5.5-.7-.8-3.1-4.2-5.2-7.5-2.2-3.3-4.3-6.2-4.6-6.5-1.5-1.3-14.2-23.8-19.2-34-22-45.4-30.8-87.2-27.4-130.6.6-7.3 4-27.9 4.7-27.9.1 0 .3-.7.5-1.5.1-.8 1.1-4.2 2.1-7.5s1.8-6.2 1.9-6.5c.1-.3.8-2.1 1.7-4.1.9-2 1.9-4.6 2.3-5.9 2.3-7.2 15.8-30 23-38.9 9.1-11.1 33.2-33.1 36.4-33.1.6 0 1.1-.4 1.1-.8 0-.5 3.5-2.8 7.8-5.2 4.2-2.5 7.9-4.8 8-5.2.2-.5.8-.8 1.4-.8.5 0 4-1.4 7.6-3.1 6-2.8 18.1-7.4 22.2-8.5.8-.2 4-1.1 7-1.9 5.7-1.6 7.2-1.9 20.5-4 7.5-1.3 40.2-1.3 46.5-.1z"/></svg>