<svg id="Layer_1" data-name="Layer 1" xmlns="http://www.w3.org/2000/svg" viewBox="0 0 382.75 59.76"><defs><style>.cls-1,.cls-2{fill:#bf0811;}.cls-1{fill-rule:evenodd;}</style></defs><title>Prancheta 1</title><polygon class="cls-1" points="0 15.77 5.9 15.77 5.9 38.81 19.94 38.81 19.94 43.99 0 43.99 0 15.77"/><path class="cls-1" d="M33.62,15.05c8.57,0,14,5.76,14,14.9s-5.47,14.83-14,14.83v-5c5,0,8.07-3.52,8.07-9.79s-3-9.86-8.07-9.86Zm0,0h0v5h0c-5,0-8.06,3.53-8.06,9.86s3,9.79,8.06,9.79h0v5h0c-8.64,0-14-5.68-14-14.83S25,15.05,33.62,15.05Z"/><path class="cls-1" d="M54.5,33.55v3.39c0,2,1.23,3,3.46,3,2.66,0,3.24-1.23,3.24-4.39V15.77h6v20c0,2.52-.08,4.4-1.44,6.12-1.44,1.88-4.18,2.88-7.71,2.88-3.24,0-5.76-.86-7.41-2.59s-1.88-3.74-1.88-6.48V33.55Z"/><path class="cls-1" d="M85.39,15.77,95.76,44H89.57l-1.95-5.76H82V33.48h4l-4-12V15.77ZM82,38.23H76.46L74.59,44H68.33L78.55,15.77H82v5.69h0l-4,12h4Z"/><path class="cls-1" d="M101.66,35.35c.44,3.17,2.6,4.47,6.56,4.47,3.45,0,5.18-1.16,5.18-3.53,0-2.59-2.38-3.1-7.7-4.25A19.8,19.8,0,0,1,99.36,30c-2-1.29-3.1-3.45-3.1-6.41,0-5.47,3.82-8.56,11.09-8.56,6.7,0,10.66,3.31,10.87,9h-5.68c-.22-2.81-2.16-4.25-5.76-4.25-3.1,0-4.83,1.29-4.83,3.45,0,2.67,2.23,2.67,7,3.82a29.7,29.7,0,0,1,6.76,2.23,6.76,6.76,0,0,1,3.46,6.34c0,5.76-4.1,9.21-11.52,9.21s-11.52-3.52-11.81-9.43Z"/><path class="cls-1" d="M149,15.77,159.34,44h-6.2l-1.94-5.76h-5.62V33.48h4l-4-12V15.77Zm-3.46,22.46H140L138.17,44H132L142.2,15.77h3.38v5.69h0l-4,12h4Z"/><polygon class="cls-1" points="160.78 15.77 169.49 15.77 175.25 37.3 180.86 15.77 189.65 15.77 189.65 43.99 184.1 43.99 184.1 21.24 178.27 43.99 172.22 43.99 166.32 21.24 166.32 43.99 160.78 43.99 160.78 15.77"/><polygon class="cls-1" points="193.1 15.77 213.98 15.77 213.98 20.66 198.94 20.66 198.94 26.71 212.69 26.71 212.69 31.54 198.94 31.54 198.94 38.81 214.7 38.81 214.7 43.99 193.1 43.99 193.1 15.77"/><path class="cls-1" d="M229.18,15.77h2.37c6.27,0,9.22,2.59,9.22,8.06,0,3.46-1.51,5.76-4.25,6.7,2.74.93,3.46,2.73,3.6,6.12l.07,3.31c.07,1.66.07,2.59,1.15,3.17V44h-6.48a8.79,8.79,0,0,1-.72-3.53l-.07-3c-.07-3.31-1-4.46-4.25-4.46h-.64v-4.9h1.29c3,0,4.39-1.15,4.39-3.74s-1.36-3.75-4.1-3.75h-1.58Zm-11.6,0h11.6v4.89h-5.62v7.49h5.62v4.9h-5.62V44h-6Z"/><rect class="cls-2" x="244.01" y="15.77" width="5.9" height="28.22"/><path class="cls-1" d="M266.69,44.78c-8.43,0-13.47-5.32-13.47-14.83s5-14.9,14-14.9c7.42,0,11.81,3.74,12.24,10.08H273.6c-.5-3.17-2.66-4.9-6.41-4.9-5.18,0-7.92,3.39-7.92,9.72s2.81,9.65,7.78,9.65c3.6,0,5.9-1.87,6.62-5.26h5.76C279,40.68,274.18,44.78,266.69,44.78Z"/><path class="cls-1" d="M295.92,15.77,306.22,44H300l-1.94-5.76h-5.62V33.48h4l-4-12V15.77Zm-3.46,22.46h-5.54L285.05,44h-6.27l10.3-28.22h3.38v5.69h0l-4,12h4Z"/><polygon class="cls-1" points="307.58 15.77 313.85 15.77 325.51 35.21 325.51 15.77 331.34 15.77 331.34 43.99 325.22 43.99 313.49 24.62 313.49 43.99 307.58 43.99 307.58 15.77"/><path class="cls-1" d="M349.78,15.77,360.07,44h-6.19l-1.94-5.76h-5.62V33.48h4l-4-12h0V15.77Zm-3.46,22.46h-5.54L338.9,44h-6.19l10.23-28.22h3.38v5.69l-4,12h4Z"/><path class="cls-1" d="M365.18,35.35c.44,3.17,2.6,4.47,6.56,4.47,3.52,0,5.18-1.16,5.18-3.53,0-2.59-2.38-3.1-7.63-4.25A19.8,19.8,0,0,1,363,30c-2.09-1.29-3.17-3.45-3.17-6.41,0-5.47,3.89-8.56,11.09-8.56,6.77,0,10.66,3.31,10.87,9h-5.68c-.22-2.81-2.16-4.25-5.69-4.25-3.1,0-4.83,1.29-4.83,3.45,0,2.67,2.16,2.67,6.92,3.82a29.7,29.7,0,0,1,6.76,2.23,6.69,6.69,0,0,1,3.53,6.34c0,5.76-4.1,9.21-11.52,9.21s-11.52-3.52-11.88-9.43Z"/><rect class="cls-2" y="51.91" width="382.61" height="7.85"/><rect class="cls-2" width="382.61" height="7.85"/></svg>